<svg width="100" height="100" viewBox="0 0 100 100" fill="none" xmlns="http://www.w3.org/2000/svg">
<path d="M87.5002 83.3333H80.4168V59.1667C80.4168 56.6667 78.7502 55 76.2502 55C73.7502 55 72.0835 56.6667 72.0835 59.1667V83.3333H62.9168V59.1667C62.9168 56.6667 61.2502 55 58.7502 55C56.2502 55 54.5835 56.6667 54.5835 59.1667V83.3333H45.4168V59.1667C45.4168 56.6667 43.7502 55 41.2502 55C38.7502 55 37.0835 56.6667 37.0835 59.1667V83.3333H27.9168V59.1667C27.9168 56.6667 26.2502 55 23.7502 55C21.2502 55 19.5835 56.6667 19.5835 59.1667V83.3333H12.5002C10.0002 83.3333 8.3335 85 8.3335 87.5C8.3335 90 10.0002 91.6667 12.5002 91.6667H87.5002C90.0002 91.6667 91.6668 90 91.6668 87.5C91.6668 85 90.0002 83.3333 87.5002 83.3333Z" fill="black"/>
<path d="M87.5002 25.0002L56.2502 9.5835C52.0835 7.50016 47.5002 7.50016 43.7502 9.5835L12.5002 25.0002C10.0002 26.2502 8.3335 29.1668 8.3335 31.6668V41.2502C8.3335 45.4168 11.6668 48.7502 15.8335 48.7502H84.1668C88.3335 48.7502 91.6668 45.4168 91.6668 41.2502V31.6668C91.6668 28.7502 90.0002 26.2502 87.5002 25.0002ZM83.3335 40.4168H16.6668V32.0835L47.5002 17.0835C49.1668 16.2502 51.2502 16.2502 52.9168 17.0835L83.3335 32.5002V40.4168Z" fill="black"/>
</svg>
