<svg width="100" height="100" viewBox="0 0 100 100" fill="none" xmlns="http://www.w3.org/2000/svg">
<path d="M69.7916 45.8335C69.7916 47.5593 68.3924 48.9585 66.6666 48.9585H33.3333C31.6074 48.9585 30.2083 47.5593 30.2083 45.8335C30.2083 44.1077 31.6074 42.7085 33.3333 42.7085H66.6666C68.3924 42.7085 69.7916 44.1077 69.7916 45.8335Z" fill="black"/>
<path fill-rule="evenodd" clip-rule="evenodd" d="M18.2733 33.9444L23.2264 20.4127C24.4746 17.0025 27.5021 14.5589 31.0989 14.0584C43.6392 12.3132 56.3609 12.3132 68.9017 14.0584C72.4984 14.5589 75.5259 17.0026 76.7743 20.4128L81.7276 33.9456C82.6538 35.391 83.2917 37.0432 83.5597 38.8244L83.9847 41.6487C85.6505 52.7264 85.4947 64.0019 83.5234 75.0289C82.6497 79.9177 78.6347 83.6314 73.6926 84.1219L68.5659 84.6306C56.2188 85.856 43.7809 85.856 31.4341 84.6306L26.3072 84.1219C21.3652 83.6314 17.3504 79.9177 16.4765 75.0289C14.5054 64.0019 14.3496 52.7264 16.0155 41.6487L16.4402 38.8244C16.7081 37.0426 17.3465 35.39 18.2733 33.9444ZM31.9603 20.2487C43.9292 18.5831 56.0713 18.5831 68.0401 20.2487C69.3488 20.4309 70.4505 21.3201 70.9051 22.561L73.0142 28.3235C72.8251 28.2959 72.6347 28.2726 72.4434 28.2536L68.3676 27.8491C56.1526 26.6367 43.8476 26.6367 31.6325 27.8491L27.5567 28.2536C27.3653 28.2726 27.1751 28.2959 26.9863 28.3234L29.0955 22.561C29.5498 21.3201 30.6515 20.4309 31.9603 20.2487ZM23.6903 37.0872L23.7681 37.1156L23.8645 36.8521C24.8885 35.536 26.4265 34.6465 28.174 34.4731L32.2498 34.0685C44.0542 32.8969 55.9455 32.8969 67.7501 34.0685L71.8259 34.4731C73.5738 34.6466 75.1122 35.5364 76.1359 36.8529L76.2322 37.1156L76.3097 37.0873C76.8559 37.8618 77.2309 38.7683 77.3792 39.7537L77.8038 42.5781C79.3684 52.9823 79.2222 63.5723 77.3709 73.9293C76.9893 76.0656 75.2347 77.6881 73.0755 77.9023L67.9484 78.4114C56.0122 79.596 43.988 79.596 32.0514 78.4114L26.9245 77.9023C24.7651 77.6881 23.0108 76.0656 22.629 73.9293C20.7777 63.5723 20.6314 52.9823 22.196 42.5781L22.6207 39.7537C22.7689 38.7682 23.144 37.8618 23.6903 37.0872Z" fill="black"/>
</svg>
