<svg width="100" height="100" viewBox="0 0 100 100" fill="none" xmlns="http://www.w3.org/2000/svg">
<path d="M33.3333 39.583C30.4568 39.583 28.125 41.9148 28.125 44.7914C28.125 47.6677 30.4568 49.9998 33.3333 49.9998C36.2098 49.9998 38.5417 47.6677 38.5417 44.7914C38.5417 41.9148 36.2098 39.583 33.3333 39.583Z" fill="#070709"/>
<path d="M49.9998 39.583C47.1232 39.583 44.7915 41.9148 44.7915 44.7914C44.7915 47.6677 47.1232 49.9998 49.9998 49.9998C52.8765 49.9998 55.2082 47.6677 55.2082 44.7914C55.2082 41.9148 52.8765 39.583 49.9998 39.583Z" fill="#070709"/>
<path d="M61.4585 44.7914C61.4585 41.9148 63.7902 39.583 66.6668 39.583C69.5435 39.583 71.8752 41.9148 71.8752 44.7914C71.8752 47.6677 69.5435 49.9998 66.6668 49.9998C63.7902 49.9998 61.4585 47.6677 61.4585 44.7914Z" fill="#070709"/>
<path fill-rule="evenodd" clip-rule="evenodd" d="M67.0861 19.1367C55.8602 18.1793 44.5761 18.1238 33.3412 18.9705L32.5361 19.0312C21.8224 19.8387 13.5415 28.7672 13.5415 39.5113V75.0001C13.5415 76.0997 14.1193 77.118 15.063 77.6822C16.0066 78.2464 17.1774 78.273 18.1458 77.7526L34.4408 68.9956C35.1988 68.5881 36.0458 68.3751 36.9063 68.3751H74.3082C79.0252 68.3751 83.0673 65.0026 83.9132 60.3618C85.6269 50.9568 85.7619 41.3319 84.3136 31.8823L83.8869 29.0976C83.1098 24.0278 78.9623 20.1495 73.8519 19.7136L67.0861 19.1367ZM33.811 25.2028C44.7123 24.3812 55.6623 24.4351 66.5552 25.364L73.3207 25.941C75.5557 26.1316 77.369 27.8276 77.709 30.0446L78.1357 32.8293C79.479 41.593 79.3536 50.5193 77.7644 59.2418C77.4598 60.9114 76.0052 62.1251 74.3082 62.1251H36.9063C35.0133 62.1251 33.1497 62.5939 31.4821 63.4901L19.7915 69.773V39.5113C19.7915 32.0367 25.5524 25.8253 33.0058 25.2636L33.811 25.2028Z" fill="#070709"/>
</svg>
