<svg width="100" height="100" viewBox="0 0 100 100" fill="none" xmlns="http://www.w3.org/2000/svg">
<path d="M34.9043 73.4134C39.6357 73.4107 44.1609 71.481 47.4389 68.0694V69.052C47.4389 69.1205 47.3409 75.2896 43.2933 79.3371C41.2301 81.4003 36.2795 82.5884 35.0811 82.5884V87.5C37.0455 87.5 43.4797 86.1049 46.7709 82.8145C52.2917 77.2937 52.3601 69.4056 52.3601 69.0624V68.0797C55.863 71.7059 60.7642 73.6383 65.7991 73.3785C70.8341 73.1187 75.5099 70.6925 78.6216 66.7257C81.7324 62.7584 82.9747 57.6384 82.0264 52.6871C81.0781 47.7352 78.0336 43.4361 73.6763 40.8987L71.191 45.1127C74.382 46.9758 76.5871 50.1531 77.2169 53.7943C77.8459 57.4349 76.8359 61.1679 74.4562 63.9943C72.0765 66.8208 68.5702 68.4523 64.8749 68.4523C61.1803 68.4523 57.6739 66.8208 55.2943 63.9943C52.9146 61.1679 51.9046 57.4347 52.5336 53.7943C53.1633 50.1531 55.3683 46.9758 58.5587 45.1127C63.0469 42.5487 66.168 38.127 67.0814 33.0393C67.9941 27.9516 66.6052 22.7207 63.2888 18.756C59.9724 14.7913 55.069 12.5 49.8997 12.5C44.7304 12.5 39.8278 14.7913 36.5107 18.756C33.1943 22.7207 31.8054 27.9516 32.7188 33.0393C33.6315 38.127 36.7526 42.5487 41.2408 45.1127C45.0697 47.3677 47.4262 51.475 47.4392 55.9186C47.457 57.1506 47.2912 58.3791 46.9479 59.5625L27.8312 39.9161L26.171 40.8987H26.1716C21.7205 43.4888 18.6411 47.9124 17.7586 52.9865C16.8753 58.0598 18.2794 63.264 21.5937 67.2054C24.9074 71.1468 29.7936 73.4223 34.9436 73.423L34.9043 73.4134ZM56.0926 40.8986C53.5354 42.3985 51.4023 44.5247 49.8941 47.0772C48.386 44.5247 46.2529 42.3985 43.6957 40.8986C40.4731 39.0574 38.2319 35.8821 37.576 32.2285C36.9209 28.5757 37.9179 24.8194 40.2997 21.9722C42.6814 19.1258 46.202 17.4807 49.9139 17.4807C53.6257 17.4807 57.1463 19.1259 59.5275 21.9722C61.9093 24.8192 62.9071 28.5757 62.2512 32.2285C61.5955 35.8821 59.3548 39.0574 56.1315 40.8986H56.0926ZM27.0443 46.2027L44.4514 64.0705C42.1641 66.7462 38.8565 68.3352 35.3388 68.449C31.8201 68.5634 28.4167 67.1923 25.9609 64.6707C23.5051 62.1499 22.223 58.7114 22.4293 55.1977C22.6355 51.6839 24.3103 48.4188 27.0443 46.2022V46.2027Z" fill="black"/>
</svg>
