<svg width="100" height="100" viewBox="0 0 100 100" fill="none" xmlns="http://www.w3.org/2000/svg">
<path d="M65.4462 87.5H34.8103L50.1286 72.1817L65.4462 87.5ZM50.1279 17.2871C47.3165 17.2744 44.6158 18.3809 42.6224 20.363C40.6284 22.3451 39.5059 25.0391 39.5011 27.8498C39.4971 30.6612 40.6116 33.3586 42.5997 35.346C44.5878 37.3341 47.285 38.4493 50.0959 38.4446C52.9073 38.4406 55.6013 37.3174 57.5834 35.324C59.5648 33.3299 60.672 30.6292 60.6593 27.8178C60.6439 25.0297 59.5294 22.3598 57.5579 20.3885C55.5859 18.4164 52.9161 17.3018 50.1279 17.2871ZM69.9352 48.0187V48.018C67.1245 48.0053 64.4238 49.1126 62.4298 51.0939C60.4357 53.076 59.3132 55.77 59.3084 58.5814C59.3044 61.3922 60.4196 64.0896 62.407 66.0776C64.3951 68.0657 67.0923 69.1802 69.9039 69.1763C72.7147 69.1716 75.4086 68.049 77.3907 66.0549C79.3721 64.0615 80.4793 61.3609 80.4666 58.5495C80.4513 55.7613 79.3374 53.0914 77.3653 51.1194C75.3939 49.1481 72.7241 48.0334 69.9352 48.018V48.0187ZM30.3189 48.018C27.5141 48.018 24.8241 49.1319 22.8408 51.1146C20.8568 53.0974 19.7415 55.7859 19.7401 58.5907C19.7381 61.3954 20.85 64.0861 22.8314 66.0708C24.8127 68.0555 27.5013 69.1729 30.3062 69.1761C33.1103 69.1794 35.8017 68.0689 37.7877 66.0888C39.7744 64.1087 40.8923 61.4207 40.8976 58.616C40.8849 55.8273 39.7717 53.1559 37.799 51.1832C35.827 49.2112 33.1558 48.0979 30.3662 48.0852L30.3189 48.018ZM50.1274 12.5001C54.2083 12.4874 58.1264 14.0981 61.018 16.9777C63.9096 19.8572 65.5371 23.7687 65.541 27.8496C65.5451 31.9306 63.9263 35.8454 61.0407 38.7308C58.1551 41.6165 54.2398 43.236 50.1595 43.2312C46.0786 43.2272 42.1672 41.5997 39.2875 38.7081C36.4079 35.8165 34.7965 31.8985 34.8093 27.8175C34.8093 23.7552 36.4234 19.8592 39.2963 16.9864C42.1686 14.1141 46.0652 12.5001 50.1274 12.5001V12.5001ZM69.9347 43.2317V43.231C74.0157 43.2183 77.9337 44.8298 80.8253 47.7093C83.7169 50.5889 85.3444 54.5003 85.3484 58.5813C85.3524 62.6616 83.7336 66.577 80.848 69.4625C77.9624 72.3481 74.0478 73.9669 69.9668 73.9628C65.8859 73.9588 61.9745 72.3313 59.0949 69.4397C56.2152 66.5481 54.6045 62.6301 54.6173 58.5491C54.6173 54.4868 56.2307 50.5901 59.1036 47.718C61.9759 44.845 65.8725 43.231 69.9347 43.231V43.2317ZM30.3183 43.2317V43.231C34.3986 43.2183 38.3174 44.8298 41.209 47.7093C44.1006 50.5889 45.7274 54.5003 45.732 58.5813C45.736 62.6616 44.1166 66.577 41.231 69.4625C38.3454 72.3479 34.4308 73.9669 30.3503 73.9628C26.2694 73.9588 22.358 72.3313 19.4783 69.4397C16.5987 66.5481 14.9873 62.6301 15.0001 58.5491C15.0001 54.4868 16.6142 50.5901 19.4864 47.718C22.3594 44.845 26.2553 43.231 30.3182 43.231L30.3183 43.2317Z" fill="black"/>
</svg>
