<svg width="100" height="100" viewBox="0 0 100 100" fill="none" xmlns="http://www.w3.org/2000/svg">
<path d="M64.4182 87.5C62.2675 87.5 55.735 86.1024 52.2405 82.6078V82.6072C51.4279 81.7852 50.6985 80.8845 50.0628 79.9194C49.4272 80.8845 48.6978 81.7852 47.8859 82.6072C44.3912 86.1018 37.8588 87.4994 35.7081 87.4994V80.3306C36.7926 80.3306 41.1473 79.2287 42.8319 77.5347V77.5354C44.6746 75.5447 45.879 73.0481 46.2909 70.3666C41.7624 73.6813 35.9533 74.7076 30.5634 73.1456C25.1729 71.5842 20.8125 67.6107 18.7575 62.3891C16.7025 57.1674 17.1855 51.2875 20.0651 46.4715C22.9447 41.6548 27.8958 38.4465 33.4681 37.7858C31.0485 32.1916 31.6067 25.7548 34.9532 20.6613C38.3003 15.5671 43.9864 12.5 50.0813 12.5C56.1761 12.5 61.8622 15.5671 65.2093 20.6613C68.5558 25.7554 69.114 32.1921 66.6945 37.7858C72.2786 38.4309 77.2458 41.6343 80.1381 46.4547C83.0295 51.2751 83.5177 57.1656 81.4588 62.3959C79.3999 67.6269 75.0277 71.6042 69.626 73.16C64.2243 74.7157 58.4064 73.6738 53.8805 70.3398C54.2811 73.0232 55.4838 75.5221 57.3307 77.5085C59.0151 79.2024 63.3699 80.2681 64.4994 80.3044V87.4731L64.4182 87.5ZM64.5795 44.8294C61.6799 44.8294 58.899 45.9808 56.849 48.031C54.7989 50.0812 53.6474 52.8619 53.6474 55.7615C53.6474 58.6604 54.7988 61.4413 56.849 63.4915C58.8992 65.5418 61.6799 66.6937 64.5795 66.6937C67.4784 66.6937 70.2593 65.5418 72.3095 63.4915C74.3598 61.4413 75.5117 58.6606 75.5117 55.7615C75.5067 52.8662 74.356 50.091 72.3108 48.0428C70.2657 45.9938 67.4924 44.8389 64.5971 44.8294H64.5795ZM35.5468 44.8294C32.6485 44.8338 29.8707 45.9895 27.8243 48.0415C25.7772 50.0942 24.6296 52.875 24.6328 55.7733C24.6359 58.6716 25.7898 61.4501 27.8412 63.4976C29.8919 65.5453 32.6722 66.6947 35.5706 66.6936C38.4689 66.6917 41.2479 65.5391 43.2968 63.4896C45.3458 61.4395 46.4971 58.6598 46.4971 55.7615C46.4921 52.8632 45.3389 50.0854 43.29 48.0366C41.2404 45.987 38.4627 44.8338 35.565 44.8294H35.5468ZM44.7043 40.1516C46.8026 41.3923 48.6309 43.0406 50.0811 44.9995C51.5455 43.0338 53.3925 41.3848 55.5116 40.1516C58.3281 38.5502 60.2887 35.7825 60.8658 32.5942C61.4421 29.4065 60.5751 26.1262 58.498 23.6398C56.4211 21.1533 53.3476 19.7162 50.1079 19.7162C46.8683 19.7162 43.795 21.1532 41.7178 23.6398C39.6409 26.1262 38.7739 29.4065 39.3501 32.5942C39.9271 35.7826 41.8878 38.5504 44.7043 40.1516V40.1516Z" fill="black"/>
</svg>
