<svg width="100" height="100" viewBox="0 0 100 100" fill="none" xmlns="http://www.w3.org/2000/svg">
<path d="M50.0002 8.3335C27.0835 8.3335 8.3335 27.0835 8.3335 50.0002C8.3335 72.9168 27.0835 91.6668 50.0002 91.6668C72.9168 91.6668 91.6668 72.9168 91.6668 50.0002C91.6668 27.0835 72.9168 8.3335 50.0002 8.3335ZM50.0002 83.3335C31.6668 83.3335 16.6668 68.3335 16.6668 50.0002C16.6668 31.6668 31.6668 16.6668 50.0002 16.6668C68.3335 16.6668 83.3335 31.6668 83.3335 50.0002C83.3335 68.3335 68.3335 83.3335 50.0002 83.3335Z" fill="black"/>
<path d="M55.4167 45.8335H44.5834C42.5 45.8335 40.8333 44.1668 40.8333 42.0835C40.8333 40.0002 42.5 38.3335 44.5834 38.3335H60C62.5 38.3335 64.1667 36.6668 64.1667 34.1668C64.1667 31.6668 62.5 30.0002 60 30.0002H54.1667V26.2502C54.1667 23.7502 52.5 22.0835 50 22.0835C47.5 22.0835 45.8334 23.7502 45.8334 26.2502V30.0002H44.5834C37.9167 30.0002 32.5 35.4168 32.5 42.0835C32.5 48.7502 37.9167 54.1668 44.5834 54.1668H55C57.0834 54.1668 58.75 55.8335 58.75 57.9168C58.75 60.0002 57.0834 61.6668 55 61.6668H39.5833C37.0833 61.6668 35.4167 63.3335 35.4167 65.8335C35.4167 68.3335 37.0833 70.0002 39.5833 70.0002H45.8334V73.7502C45.8334 76.2502 47.5 77.9168 50 77.9168C52.5 77.9168 54.1667 76.2502 54.1667 73.7502V70.0002H55.4167C62.0834 70.0002 67.5 64.5835 67.5 57.9168C67.5 51.2502 62.0834 45.8335 55.4167 45.8335Z" fill="black"/>
</svg>
