<svg width="100" height="100" viewBox="0 0 100 100" fill="none" xmlns="http://www.w3.org/2000/svg">
<path d="M37.5001 13.5415C24.2682 13.5415 13.5417 24.268 13.5417 37.4998V67.1119C13.5417 68.8378 14.9409 70.2369 16.6667 70.2369C18.3926 70.2369 19.7917 68.8378 19.7917 67.1119V37.4998C19.7917 27.7198 27.72 19.7915 37.5001 19.7915H66.7205C68.4463 19.7915 69.8455 18.3924 69.8455 16.6665C69.8455 14.9406 68.4463 13.5415 66.7205 13.5415H37.5001Z" fill="black"/>
<path fill-rule="evenodd" clip-rule="evenodd" d="M76.6774 28.3053C63.1733 26.796 49.3266 26.796 35.8228 28.3053C31.9758 28.7352 28.8844 31.7627 28.4309 35.6395C26.8293 49.3334 26.8293 63.1667 28.4309 76.8604C28.8844 80.7375 31.9758 83.7646 35.8228 84.1946C49.3266 85.7042 63.1733 85.7042 76.6774 84.1946C80.5241 83.7646 83.6158 80.7375 84.0691 76.8604C85.6708 63.1667 85.6708 49.3334 84.0691 35.6395C83.6158 31.7627 80.5241 28.7352 76.6774 28.3053ZM36.517 34.5166C49.5595 33.0589 62.9403 33.0589 75.9828 34.5166C76.972 34.6271 77.7495 35.4092 77.8612 36.3656C79.4066 49.5767 79.4066 62.9234 77.8612 76.1346C77.7495 77.0909 76.972 77.8729 75.9828 77.9834C62.9403 79.4413 49.5595 79.4413 36.517 77.9834C35.528 77.8729 34.7505 77.0909 34.6386 76.1346C33.0935 62.9234 33.0935 49.5767 34.6386 36.3656C34.7505 35.4092 35.528 34.6271 36.517 34.5166Z" fill="black"/>
</svg>
