<svg width="100" height="100" viewBox="0 0 100 100" fill="none" xmlns="http://www.w3.org/2000/svg">
<path d="M67.4128 9.2002H32.587C26.0571 9.2002 20.8333 14.2507 20.8333 20.1429V44.1326C20.8333 58.0218 31.7163 69.8064 45.6466 71.9106V84.116H32.587C29.975 84.116 28.2338 85.7993 28.2338 88.3247C28.2338 90.8501 29.975 92.5335 32.587 92.5335H67.4128C70.0249 92.5335 71.7662 90.8501 71.7662 88.3247C71.7662 85.7993 70.0249 84.116 67.4128 84.116H54.3533V71.9106C68.2837 69.8064 79.1666 58.4426 79.1666 44.1326V20.1429C79.1666 14.2507 73.9428 9.2002 67.4128 9.2002ZM70.4599 44.1326C70.4599 55.0756 61.3183 63.9139 49.9999 63.9139C38.6815 63.9139 29.5397 55.0756 29.5397 44.1326V20.1429C29.5397 18.8803 30.8457 17.6177 32.587 17.6177H67.4128C68.7187 17.6177 70.4599 18.8803 70.4599 20.1429V44.1326Z" fill="#070709"/>
<path d="M12.4999 13.3667C9.99992 13.3667 8.33325 15.0983 8.33325 17.6957V42.3708C8.33325 44.9683 9.99992 46.7 12.4999 46.7C14.9999 46.7 16.6666 44.9683 16.6666 42.3708V17.6957C16.6666 15.5312 14.9999 13.3667 12.4999 13.3667Z" fill="#070709"/>
<path d="M87.4999 13.3667C84.9999 13.3667 83.3333 15.0983 83.3333 17.6957V42.3708C83.3333 44.9683 84.9999 46.7 87.4999 46.7C89.9999 46.7 91.6666 44.9683 91.6666 42.3708V17.6957C91.6666 15.5312 89.9999 13.3667 87.4999 13.3667Z" fill="#070709"/>
</svg>
