<svg width="100" height="100" viewBox="0 0 100 100" fill="none" xmlns="http://www.w3.org/2000/svg">
<path d="M75.3861 47.7871H73.1552C71.0582 47.7871 62.8563 45.8501 59.3013 42.2952C52.5386 35.5326 52.4147 25.3588 52.4147 25.2605V12.5H47.9715V25.2517C47.9715 25.7402 48.0781 37.3371 56.1649 45.4237C58.363 47.4414 60.9433 48.9977 63.7538 50.0001C61.0239 50.9919 58.5104 52.5007 56.3515 54.4433L42.6575 40.7139L41.0849 42.2865C37.5307 45.8407 29.328 47.7784 27.2309 47.7784H25V52.2216H27.2303C29.3273 52.2216 37.5292 54.1587 41.0843 57.7135C47.8469 64.4762 47.9708 74.6499 47.9708 74.7483L47.9715 87.5H52.4146V74.7569C52.4146 74.6502 52.5392 64.4752 59.3012 57.7126C62.8554 54.1583 71.0581 52.2206 73.1552 52.2206H75.3855V47.7775L75.3861 47.7871ZM44.2221 54.5764C42.024 52.5588 39.4436 51.0024 36.6332 50C38.7283 49.219 40.7119 48.1677 42.5337 46.8722L53.455 57.7935C52.1211 59.6958 51.0257 61.755 50.1939 63.9252C48.8785 60.4254 46.8442 57.2406 44.2221 54.5764V54.5764Z" fill="black"/>
</svg>
