<svg width="100" height="100" viewBox="0 0 100 100" fill="none" xmlns="http://www.w3.org/2000/svg">
<path fill-rule="evenodd" clip-rule="evenodd" d="M63.0705 14.4568C62.4847 13.8708 61.6897 13.5415 60.8609 13.5415C60.0322 13.5415 59.2372 13.8708 58.6513 14.4568L20.3496 52.7586C19.957 53.1511 19.676 53.6411 19.5358 54.1782L15.3691 70.1303C15.0887 71.2036 15.3985 72.3453 16.1829 73.1294C16.9674 73.914 18.109 74.224 19.1824 73.9436L35.1342 69.7769C35.6714 69.6365 36.1615 69.3557 36.5541 68.9628L74.8559 30.6613C76.0759 29.4409 76.0759 27.4623 74.8559 26.2419L63.0705 14.4568ZM25.3685 56.5782L60.8609 21.0859L68.2268 28.4516L32.7343 63.944L22.7644 66.5482L25.3685 56.5782Z" fill="#070709"/>
<path d="M16.6667 80.2085C14.9409 80.2085 13.5417 81.6077 13.5417 83.3335C13.5417 85.0593 14.9409 86.4585 16.6667 86.4585H79.1668C80.8926 86.4585 82.2918 85.0593 82.2918 83.3335C82.2918 81.6077 80.8926 80.2085 79.1668 80.2085H16.6667Z" fill="#070709"/>
</svg>
