<svg width="100" height="100" viewBox="0 0 100 100" fill="none" xmlns="http://www.w3.org/2000/svg">
<path d="M66.2654 90V75.2759C66.4081 73.4617 66.163 71.6379 65.5464 69.9258C64.9297 68.2136 63.9557 66.6523 62.689 65.3457C74.6357 64.0141 87.1911 59.4866 87.1911 38.7131C87.1901 33.4011 85.1468 28.2928 81.4841 24.4455C83.2184 19.7982 83.0958 14.6613 81.1416 10.1019C81.1416 10.1019 76.6521 8.7703 66.2654 15.7329C57.5451 13.3695 48.353 13.3695 39.6327 15.7329C29.2459 8.7703 24.7564 10.1019 24.7564 10.1019C22.8023 14.6613 22.6796 19.7982 24.414 24.4455C20.724 28.3214 18.6786 33.4758 18.707 38.8272C18.707 59.4485 31.2624 63.9761 43.2091 65.4599C41.9573 66.7534 40.992 68.2959 40.3758 69.9871C39.7596 71.6784 39.5064 73.4804 39.6327 75.2759V90M39.6327 78.586C20.6093 84.293 20.6093 69.0743 13 67.172L39.6327 78.586Z" stroke="#070709" stroke-width="6" stroke-linecap="round" stroke-linejoin="round"/>
</svg>
