<svg width="100" height="100" viewBox="0 0 100 100" fill="none" xmlns="http://www.w3.org/2000/svg">
<path d="M86.8971 43.1725C86.8275 42.7808 86.4842 42.5 86.0862 42.5H50.8333C50.3729 42.5 50 42.8729 50 43.3333V56.6667C50 57.1271 50.3729 57.5 50.8333 57.5H71.1933C68.1012 66.2317 59.7929 72.5 50 72.5C37.5744 72.5 27.5 62.4254 27.5 50C27.5 37.5744 37.5744 27.5 50 27.5C55.4529 27.5 60.4383 29.4558 64.3308 32.6859C64.6704 32.9677 65.1704 32.9544 65.4825 32.6423L74.9233 23.2016C75.2571 22.868 75.2479 22.3237 74.8958 22.0099C68.2721 16.1113 59.5671 12.5 50 12.5C29.2906 12.5 12.5 29.2906 12.5 50C12.5 70.7096 29.2906 87.5 50 87.5C70.7096 87.5 87.5 70.7096 87.5 50C87.5 47.7208 87.2875 45.3633 86.8971 43.1725Z" fill="#070709"/>
</svg>
