<svg width="100" height="100" viewBox="0 0 100 100" fill="none" xmlns="http://www.w3.org/2000/svg">
<path d="M50.0003 83.0992L18.5688 51.6677C14.4663 47.5889 12.2706 41.9727 12.519 36.193C12.7673 30.414 15.4365 25.0061 19.8735 21.2941C24.3105 17.5828 30.1044 15.9102 35.8371 16.6861C41.5692 17.4625 46.7101 20.6154 50 25.3736C53.2901 20.6154 58.4308 17.4626 64.1629 16.6861C69.8957 15.9102 75.6894 17.5829 80.1265 21.2941C84.5635 25.0061 87.2327 30.414 87.481 36.193C87.7293 41.9727 85.5337 47.5889 81.4312 51.6677L50.0003 83.0992ZM33.1128 23.917C29.6118 23.9164 26.2542 25.3066 23.7787 27.7822C21.3032 30.257 19.9122 33.6146 19.9122 37.115C19.9122 40.616 21.3031 43.9736 23.7792 46.4484L49.9998 72.6691L76.2205 46.4484C79.3368 43.3315 80.6916 38.8648 79.8315 34.5417C78.9714 30.2191 76.0102 26.6114 71.9378 24.9245C67.8662 23.2377 63.2207 23.6944 59.5563 26.1429C55.8912 28.5914 53.6904 32.7074 53.6891 37.1149H46.3114C46.3062 33.6158 44.9141 30.2622 42.4405 27.7879C39.9663 25.3137 36.6118 23.922 33.1134 23.9169L33.1128 23.917Z" fill="black"/>
</svg>
