<svg width="100" height="100" viewBox="0 0 100 100" fill="none" xmlns="http://www.w3.org/2000/svg">
<path d="M71.0561 23.8175C74.2696 23.8157 77.3525 25.0888 79.6288 27.3573C81.9045 29.6264 83.1873 32.7052 83.1957 35.9187C83.2041 39.1327 81.9376 42.2181 79.6733 44.4986L70.2116 53.9519L50.0044 74.1684L29.7971 53.9519L20.3696 44.5329C17.4303 41.4421 16.3285 37.0361 17.467 32.9253C18.6049 28.8144 21.8172 25.6028 25.9272 24.4644C30.0381 23.326 34.4447 24.4284 37.5355 27.3677L46.9539 36.7951L50.0044 39.8367L53.0549 36.7945L62.4733 27.3677C64.7544 25.0775 67.8584 23.7991 71.0904 23.8177L71.0561 23.8175ZM71.0904 19.5091C66.726 19.4995 62.5382 21.2336 59.4576 24.3256L50.0042 33.7447L40.5858 24.3256C37.5016 21.2379 33.3169 19.5031 28.9523 19.5031C24.5885 19.5031 20.403 21.2378 17.3195 24.3256C14.2334 27.411 12.5 31.5958 12.5 35.9591C12.5 40.3223 14.2336 44.5072 17.3195 47.5926L26.7379 57.0026L50.0042 80.2689L73.2706 57.0026L82.6805 47.5835C85.7666 44.4987 87.5 40.314 87.5 35.9507C87.5 31.5868 85.7664 27.4026 82.6805 24.3172C79.6024 21.227 75.4177 19.4934 71.0561 19.5L71.0904 19.5091Z" fill="black"/>
</svg>
