<svg width="100" height="100" viewBox="0 0 100 100" fill="none" xmlns="http://www.w3.org/2000/svg">
<path d="M68.8947 13.0002C60.0696 13.0002 53.7013 19.2692 53.4346 19.5242L57.391 23.4262C57.4468 23.4262 62.459 18.5132 68.9389 18.5132C76.2297 18.5132 81.9429 24.6597 81.9429 32.5064C81.9437 40.353 78.3643 44.1544 78.2309 44.2876L74.7522 47.7555L46.5213 19.5246C46.2546 19.2688 39.8522 13.0006 31.0613 13.0006C20.6585 13.0006 12.5 21.5923 12.5 32.551C12.5 42.7431 17.6238 48.0002 17.8465 48.2227L37.4962 67.8839C47.0106 77.2757 47.2214 86.7784 47.2214 87.2119H52.7786C52.7786 86.8118 52.9895 77.2759 62.5147 67.8724L82.1652 48.2112C82.3761 48.0003 87.5 42.7431 87.5 32.5512C87.5008 21.5917 79.3423 13 68.8947 13V13.0002ZM58.5586 63.9166V63.9174C54.9527 67.4195 52.0346 71.5664 49.9559 76.143C47.8821 71.5664 44.9677 67.4195 41.3642 63.9174L21.7913 44.3112C21.6355 44.1553 18.0569 40.3209 18.0569 32.5524C18.0569 24.7832 23.7699 18.5584 31.1057 18.5584C37.5406 18.5584 42.5537 23.4272 42.5977 23.4272L70.8286 51.6581L58.5586 63.9166Z" fill="black"/>
</svg>
