<svg width="100" height="100" viewBox="0 0 100 100" fill="none" xmlns="http://www.w3.org/2000/svg">
<path d="M28.6026 28.6763C34.0756 23.1845 41.6387 19.7915 50.0001 19.7915C66.6838 19.7915 80.2084 33.3163 80.2084 49.9998C80.2084 66.6836 66.6838 80.2082 50.0001 80.2082C33.3165 80.2082 19.7917 66.6836 19.7917 49.9998C19.7917 48.274 18.3926 46.8748 16.6667 46.8748C14.9409 46.8748 13.5417 48.274 13.5417 49.9998C13.5417 70.1353 29.8647 86.4582 50.0001 86.4582C70.1355 86.4582 86.4584 70.1353 86.4584 49.9998C86.4584 29.8645 70.1355 13.5415 50.0001 13.5415C39.9105 13.5415 30.7733 17.6441 24.1756 24.2645C24.0696 24.3709 23.9728 24.483 23.8853 24.5999L18.6454 19.36C18.0738 18.7884 17.2231 18.5991 16.463 18.8743C15.703 19.1495 15.1707 19.8395 15.0975 20.6445L13.6243 36.8491C13.5684 37.4648 13.7888 38.0736 14.226 38.5108C14.6632 38.948 15.272 39.1685 15.8877 39.1125L32.0923 37.6393C32.8973 37.5661 33.5874 37.0339 33.8625 36.2738C34.1377 35.5137 33.9484 34.663 33.3768 34.0914L28.2597 28.9743C28.3793 28.8846 28.494 28.7853 28.6026 28.6763Z" fill="#070709"/>
<path d="M53.125 29.1665C53.125 27.4406 51.7258 26.0415 50 26.0415C48.2742 26.0415 46.875 27.4406 46.875 29.1665V49.9998C46.875 51.0773 47.43 52.0786 48.3437 52.6498L60.8437 60.4623C62.3075 61.3769 64.2354 60.9323 65.15 59.4686C66.0646 58.0048 65.62 56.0769 64.1562 55.1623L53.125 48.2678V29.1665Z" fill="#070709"/>
</svg>
