<svg width="100" height="100" viewBox="0 0 100 100" fill="none" xmlns="http://www.w3.org/2000/svg">
<path d="M50 44.7915C51.7258 44.7915 53.125 46.1907 53.125 47.9165V68.7498C53.125 70.4757 51.7258 71.8748 50 71.8748C48.2742 71.8748 46.875 70.4757 46.875 68.7498V47.9165C46.875 46.1907 48.2742 44.7915 50 44.7915Z" fill="#070709"/>
<path d="M49.9999 37.4998C52.3012 37.4998 54.1666 35.6343 54.1666 33.3332C54.1666 31.032 52.3012 29.1665 49.9999 29.1665C47.6987 29.1665 45.8333 31.032 45.8333 33.3332C45.8333 35.6343 47.6987 37.4998 49.9999 37.4998Z" fill="#070709"/>
<path fill-rule="evenodd" clip-rule="evenodd" d="M30.4863 15.7034C43.3511 14.2655 56.6486 14.2655 69.5132 15.7034C77.1232 16.5539 83.2686 22.5482 84.1641 30.2022C85.7024 43.356 85.7024 56.6444 84.1641 69.7981C83.2686 77.4523 77.1232 83.4465 69.5132 84.2973C56.6486 85.7348 43.3511 85.7348 30.4863 84.2973C22.8764 83.4465 16.7309 77.4523 15.8357 69.7981C14.2973 56.6444 14.2973 43.356 15.8357 30.2022C16.7309 22.5482 22.8764 16.5539 30.4863 15.7034ZM68.8191 21.9147C56.4157 20.5284 43.5841 20.5284 31.1805 21.9147C26.412 22.4476 22.5951 26.2112 22.0434 30.9283C20.5614 43.5998 20.5614 56.4006 22.0434 69.0723C22.5951 73.7894 26.412 77.5527 31.1805 78.0856C43.5841 79.4719 56.4157 79.4719 68.8191 78.0856C73.5878 77.5527 77.4045 73.7894 77.9561 69.0723C79.4382 56.4006 79.4382 43.5998 77.9561 30.9283C77.4045 26.2112 73.5878 22.4476 68.8191 21.9147Z" fill="#070709"/>
</svg>
