<svg width="100" height="100" viewBox="0 0 100 100" fill="none" xmlns="http://www.w3.org/2000/svg">
<g clip-path="url(#clip0_121_72)">
<path d="M50.2678 29.3361C38.8396 29.3361 29.6217 38.5541 29.6217 49.9822C29.6217 61.4103 38.8396 70.6283 50.2678 70.6283C61.6959 70.6283 70.9139 61.4103 70.9139 49.9822C70.9139 38.5541 61.6959 29.3361 50.2678 29.3361ZM50.2678 63.4048C42.8826 63.4048 36.8451 57.3853 36.8451 49.9822C36.8451 42.5791 42.8646 36.5595 50.2678 36.5595C57.6709 36.5595 63.6904 42.5791 63.6904 49.9822C63.6904 57.3853 57.6529 63.4048 50.2678 63.4048V63.4048ZM76.574 28.4916C76.574 31.1689 74.4178 33.3072 71.7584 33.3072C69.081 33.3072 66.9428 31.151 66.9428 28.4916C66.9428 25.8322 69.099 23.676 71.7584 23.676C74.4178 23.676 76.574 25.8322 76.574 28.4916ZM90.2482 33.3791C89.9428 26.9283 88.4693 21.2142 83.7435 16.5064C79.0357 11.7986 73.3217 10.3252 66.8709 10.0018C60.2225 9.62441 40.2951 9.62441 33.6467 10.0018C27.2139 10.3072 21.4998 11.7807 16.774 16.4885C12.0482 21.1963 10.5928 26.9103 10.2693 33.3611C9.89199 40.0095 9.89199 59.9369 10.2693 66.5853C10.5748 73.0361 12.0482 78.7501 16.774 83.4579C21.4998 88.1658 27.1959 89.6392 33.6467 89.9626C40.2951 90.34 60.2225 90.34 66.8709 89.9626C73.3217 89.6572 79.0357 88.1837 83.7435 83.4579C88.4513 78.7501 89.9248 73.0361 90.2482 66.5853C90.6256 59.9369 90.6256 40.0275 90.2482 33.3791V33.3791ZM81.6592 73.7189C80.2576 77.2408 77.5443 79.954 74.0045 81.3736C68.7037 83.4759 56.1256 82.9908 50.2678 82.9908C44.41 82.9908 31.8139 83.4579 26.5311 81.3736C23.0092 79.972 20.2959 77.2587 18.8764 73.7189C16.774 68.4181 17.2592 55.84 17.2592 49.9822C17.2592 44.1244 16.792 31.5283 18.8764 26.2455C20.2779 22.7236 22.9912 20.0103 26.5311 18.5908C31.8318 16.4885 44.41 16.9736 50.2678 16.9736C56.1256 16.9736 68.7217 16.5064 74.0045 18.5908C77.5264 19.9924 80.2396 22.7057 81.6592 26.2455C83.7615 31.5463 83.2763 44.1244 83.2763 49.9822C83.2763 55.84 83.7615 68.4361 81.6592 73.7189Z" fill="black"/>
</g>
<defs>
<clipPath id="clip0_121_72">
<rect width="80.5" height="92" fill="white" transform="translate(10 4)"/>
</clipPath>
</defs>
</svg>
