<svg width="100" height="100" viewBox="0 0 100 100" fill="none" xmlns="http://www.w3.org/2000/svg">
<path d="M50 76.0418C48.2742 76.0418 46.875 77.441 46.875 79.1668C46.875 80.8927 48.2742 82.2918 50 82.2918H75C79.0271 82.2918 82.2917 79.0273 82.2917 75.0002V25.0002C82.2917 20.9731 79.0271 17.7085 75 17.7085H50C48.2742 17.7085 46.875 19.1076 46.875 20.8335C46.875 22.5594 48.2742 23.9585 50 23.9585H75C75.5754 23.9585 76.0417 24.4249 76.0417 25.0002V75.0002C76.0417 75.5756 75.5754 76.0418 75 76.0418H50Z" fill="#070709"/>
<path fill-rule="evenodd" clip-rule="evenodd" d="M60.4297 59.8548C63.3059 59.8548 65.638 57.5231 65.638 54.6465V45.3111C65.638 42.4344 63.3059 40.1027 60.4297 40.1027H41.2104C41.1832 39.7968 41.1548 39.4909 41.1251 39.1851L40.9 36.869C40.5565 33.3352 36.804 31.2189 33.6022 32.7533C26.793 36.0166 20.6286 40.4822 15.4057 45.9352L14.9924 46.3669C13.0582 48.3865 13.0582 51.5711 14.9924 53.5906L15.4057 54.0223C20.6286 59.4752 26.793 63.9411 33.6022 67.2044C36.804 68.7386 40.5565 66.6223 40.9 63.0886L41.1251 60.7723C41.1548 60.4665 41.1832 60.1606 41.2104 59.8548H60.4297ZM38.313 53.6048C37.2032 53.6048 36.222 54.1852 35.6671 55.0665C35.3969 55.4956 35.2277 55.9961 35.1941 56.5352C35.1185 57.7473 35.0219 58.9581 34.9044 60.1677L34.839 60.8402C30.5222 58.6152 26.5132 55.8448 22.91 52.5994C21.9752 51.7573 21.0677 50.8836 20.1892 49.979C24.4539 45.5869 29.4022 41.9194 34.839 39.1175L34.9044 39.7898C35.0219 40.9993 35.1185 42.2102 35.1941 43.4223C35.2968 45.0694 36.6627 46.3527 38.313 46.3527H59.388V53.6048H38.313Z" fill="#070709"/>
</svg>
