<svg width="100" height="100" viewBox="0 0 100 100" fill="none" xmlns="http://www.w3.org/2000/svg">
<path fill-rule="evenodd" clip-rule="evenodd" d="M47.8594 19.8662C32.1746 20.9642 19.7915 34.0359 19.7915 49.9998C19.7915 66.6836 33.3163 80.2082 49.9998 80.2082C63.3661 80.2082 74.7069 71.5257 78.6865 59.4944C75.6236 60.7598 72.2669 61.4582 68.7498 61.4582C54.3673 61.4582 42.7082 49.799 42.7082 35.4165C42.7082 29.5868 44.6253 24.2044 47.8594 19.8662ZM13.5415 49.9998C13.5415 29.8645 29.8645 13.5415 49.9998 13.5415C51.8732 13.5415 53.7157 13.6831 55.5161 13.9566C56.7619 14.1458 57.7723 15.0645 58.0782 16.2868C58.3844 17.509 57.9269 18.7955 56.9173 19.5496C52.0798 23.1638 48.9582 28.9252 48.9582 35.4165C48.9582 46.3473 57.819 55.2082 68.7498 55.2082C73.4757 55.2082 77.8073 53.5557 81.2102 50.794C82.1882 50.0007 83.5469 49.8715 84.6565 50.4669C85.7665 51.0623 86.4107 52.2653 86.2902 53.519C84.5177 72.0048 68.9486 86.4582 49.9998 86.4582C29.8645 86.4582 13.5415 70.1353 13.5415 49.9998Z" fill="black"/>
</svg>
