<svg width="100" height="100" viewBox="0 0 100 100" fill="none" xmlns="http://www.w3.org/2000/svg">
<path d="M46.308 68.1678C47.0491 69.4358 48.4065 70.2148 49.8749 70.2148C51.3434 70.2148 52.7009 69.4358 53.4419 68.1678L55.2254 65.0766C55.9327 63.804 55.9175 62.2527 55.1863 60.9941C54.4544 59.7354 53.1142 58.9544 51.6584 58.9385H48.0914C46.6217 58.9458 45.2668 59.7327 44.5324 61.0053C43.7979 62.2786 43.7952 63.8458 44.5244 65.1209L46.308 68.1678ZM47.0955 62.4457C47.3078 62.1027 47.688 61.8983 48.0915 61.9109H51.6584C52.0711 61.9076 52.4533 62.1299 52.6544 62.4908C52.8647 62.8431 52.8647 63.2824 52.6544 63.6347L50.8709 66.7259V66.7266C50.6619 67.0769 50.2837 67.2919 49.8749 67.2919C49.4662 67.2919 49.088 67.0769 48.879 66.7266L47.0955 63.6354V63.6347C46.8666 63.2718 46.8666 62.8093 47.0955 62.4457V62.4457Z" fill="black"/>
<path d="M59.8932 69.0884H56.5491C55.7277 69.0884 55.0628 69.7539 55.0628 70.5746C55.0628 71.3954 55.7277 72.0609 56.5491 72.0609C56.2299 73.1311 55.5751 74.07 54.6807 74.7395C53.7869 75.4083 52.7015 75.7719 51.5847 75.7766C51.158 75.7786 50.7334 75.7235 50.3214 75.6134H49.5185C49.1065 75.7235 48.6818 75.7786 48.2552 75.7766C47.1385 75.772 46.053 75.4083 45.1592 74.7395C44.2655 74.0701 43.6106 73.1312 43.2915 72.0609C44.1122 72.0609 44.7777 71.3954 44.7777 70.5746C44.7777 69.7539 44.1122 69.0884 43.2915 69.0884H39.8578C39.0371 69.0884 38.3716 69.7539 38.3716 70.5746C38.3716 71.3954 39.0371 72.0609 39.8578 72.0609H40.1849C40.532 73.9373 41.5245 75.6332 42.9903 76.8548C44.456 78.0764 46.3032 78.7465 48.2107 78.749C48.7713 78.747 49.3293 78.682 49.8754 78.5559C50.4215 78.682 50.9795 78.747 51.5401 78.749C53.4476 78.7464 55.2948 78.0762 56.7605 76.8548C58.2262 75.6333 59.2189 73.9373 59.5659 72.0609H59.893C60.7137 72.0609 61.3792 71.3954 61.3792 70.5746C61.3792 69.7539 60.7137 69.0884 59.893 69.0884H59.8932Z" fill="black"/>
<path d="M85.5452 54.3313L83.0631 52.845V52.2804C83.0757 46.5516 81.6008 40.9185 78.7829 35.9317C85.3968 22.318 85.1592 18.3787 84.1932 16.4916C83.7891 15.7803 83.1303 15.2488 82.3499 15.0053C80.4575 13.3565 78.006 12.4953 75.4985 12.5974C71.0398 12.7162 66.2539 15.5699 61.468 21.2031V21.2024C53.9857 18.3892 45.7357 18.3892 38.252 21.2024C33.5259 15.54 28.7699 12.6273 24.2368 12.5078C21.7341 12.4082 19.2876 13.2695 17.4 14.9156C16.6131 15.1552 15.9483 15.6866 15.5421 16.4019C14.5761 18.2895 14.3385 22.2282 20.9524 35.842C18.1338 40.8295 16.6589 46.4627 16.6715 52.1907V52.7554L14.2047 54.3312C13.7263 54.6271 13.4556 55.1679 13.506 55.7285C14.2212 63.1093 17.1625 70.0993 21.9404 75.7716C26.7176 81.4433 33.1058 85.5298 40.2578 87.4891C40.3865 87.5037 40.5159 87.5037 40.6446 87.4891C40.9797 87.4871 41.3041 87.3723 41.5655 87.1626C41.9331 86.8727 42.1421 86.4261 42.1308 85.9584V84.4721C44.3854 85.0188 46.6923 85.3227 49.0121 85.3791H50.6768C53.0157 85.3201 55.3419 85.0162 57.617 84.4721V85.9584C57.6057 86.4261 57.8147 86.8727 58.1823 87.1626C58.4437 87.3723 58.7682 87.4871 59.1032 87.4891C59.232 87.5037 59.3613 87.5037 59.4901 87.4891C66.6426 85.5298 73.0309 81.4432 77.8074 75.7716C82.5853 70.0993 85.5266 63.1093 86.2418 55.7285C86.2923 55.1679 86.0216 54.6271 85.5432 54.3312L85.5452 54.3313ZM76.9104 32.9735C74.7785 29.9976 72.1729 27.3915 69.1965 25.2603C76.0187 19.3153 79.9573 17.472 81.3094 17.7103C81.458 17.7103 81.4726 17.7103 81.5177 17.8443C81.874 18.4528 82.4095 21.3065 76.9103 32.9735L76.9104 32.9735ZM75.5131 15.4799C76.223 15.4514 76.933 15.5211 77.6237 15.6883C73.6327 17.8195 69.9436 20.4735 66.6554 23.58C65.8976 23.1341 65.1691 22.7181 64.3518 22.3313C68.2751 17.9773 72.1691 15.5993 75.5132 15.4799H75.5131ZM35.3844 22.3313C34.5968 22.7174 33.8981 23.1341 33.0808 23.58C29.7925 20.4767 26.1034 17.8275 22.1124 15.7029C22.7766 15.5324 23.4626 15.4567 24.1487 15.4799C27.5816 15.5695 31.4459 17.9475 35.399 22.332L35.3844 22.3313ZM18.1745 17.8725C18.1745 17.7836 18.1745 17.7538 18.3828 17.7385C19.7204 17.501 23.6735 19.388 30.4956 25.2885L30.495 25.2891C27.5351 27.4249 24.9441 30.0305 22.8263 33.003C17.3418 21.3062 17.8772 18.4524 18.189 17.8433L18.1745 17.8725ZM38.2991 24.3232H38.2984C41.9538 22.8024 45.873 22.0196 49.8321 22.0196C53.7906 22.0196 57.7105 22.8025 61.365 24.3232C66.6856 26.5194 71.2692 30.1878 74.578 34.8975C77.8875 39.6071 79.7845 45.1626 80.0472 50.9124L65.0806 41.6532C64.2605 41.1363 63.2832 40.9266 62.3232 41.062C61.3631 41.1967 60.4812 41.6678 59.8356 42.391C59.1894 43.1142 58.8205 44.0425 58.7939 45.0119L58.4967 54.8656C55.9018 53.248 52.9046 52.3901 49.8465 52.3901C46.7884 52.3901 43.7915 53.248 41.1964 54.8656L40.9589 44.9973C40.9071 43.5362 40.0824 42.2131 38.7932 41.5239C37.5033 40.8351 35.9447 40.8843 34.702 41.6532L19.7055 50.9125C19.9563 45.1659 21.84 39.6097 25.1357 34.8955C28.4313 30.1806 33.0021 26.5035 38.3135 24.294L38.2991 24.3232ZM58.2148 79.581L58.2142 79.5817C54.9677 82.0944 50.7551 82.9967 46.7634 82.0334C42.7725 81.0707 39.4344 78.3463 37.6907 74.6287C35.9476 70.9117 35.9875 66.6036 37.7988 62.9191C39.6102 59.234 42.9973 56.572 47.0056 55.6823C51.0146 54.7932 55.2099 55.7726 58.41 58.345C61.6101 60.9175 63.4685 64.8041 63.4612 68.9099C63.4658 73.0993 61.5071 77.0491 58.1698 79.5817L58.2148 79.581ZM16.5999 56.3803L36.2778 44.2077L36.2771 44.2083C36.6255 44.0033 37.0581 44.0033 37.4064 44.2083C37.766 44.3901 37.9949 44.7564 38.0009 45.1591L38.3725 57.1977C35.0722 60.4145 33.2734 64.8678 33.4147 69.4745C33.556 74.0805 35.6242 78.4159 39.1154 81.4236L39.1897 84.0988C33.1904 82.0692 27.8842 78.3887 23.8807 73.4807C19.8772 68.5727 17.3378 62.6357 16.5543 56.3507L16.5999 56.3803ZM60.6081 84.0398L60.6824 81.3645C64.1738 78.3562 66.2418 74.0209 66.3832 69.4148C66.5245 64.8086 64.7257 60.3546 61.4254 57.1387L61.7969 45.1001C61.8029 44.6967 62.0318 44.3304 62.3914 44.1486C62.7398 43.9436 63.1724 43.9436 63.5207 44.1486L83.1986 56.3212C82.4137 62.5954 79.8784 68.5224 75.8836 73.4241C71.8887 78.3259 66.5944 82.0046 60.6077 84.0395L60.6081 84.0398Z" fill="black"/>
<path d="M34.8497 57.0354C35.2438 57.0354 35.6213 56.8788 35.9007 56.6002C36.1793 56.3215 36.3359 55.9433 36.3359 55.5492C36.3777 54.2567 35.8814 53.0052 34.9664 52.0923C34.0508 51.1799 32.7974 50.6876 31.5056 50.7334C30.2157 50.6916 28.9664 51.1859 28.0541 52.0982C27.1418 53.0105 26.6482 54.2593 26.69 55.549C26.69 56.3698 27.3555 57.0353 28.1762 57.0353C28.997 57.0353 29.6625 56.3698 29.6625 55.549C29.7487 54.5909 30.5509 53.8571 31.513 53.8571C32.4745 53.8571 33.2774 54.5909 33.3636 55.549C33.3636 55.9432 33.5202 56.3214 33.7989 56.6C34.0776 56.8787 34.4558 57.0353 34.8499 57.0353L34.8497 57.0354Z" fill="black"/>
<path d="M64.9011 57.0354C65.2952 57.0354 65.6734 56.8788 65.9521 56.6001C66.2308 56.3215 66.3874 55.9433 66.3874 55.5491C66.4736 54.5911 67.2765 53.8572 68.238 53.8572C69.2 53.8572 70.0022 54.5911 70.0885 55.5491C70.0885 56.3699 70.754 57.0354 71.5748 57.0354C72.3955 57.0354 73.061 56.3699 73.061 55.5491C72.9688 53.8897 72.0299 52.3942 70.5755 51.59C69.1211 50.7851 67.3555 50.7851 65.9006 51.59C64.4462 52.3941 63.5073 53.8896 63.415 55.5491C63.415 55.9433 63.5716 56.3215 63.8503 56.6001C64.1296 56.8788 64.5072 57.0354 64.9013 57.0354H64.9011Z" fill="black"/>
</svg>
