<svg width="100" height="100" viewBox="0 0 100 100" fill="none" xmlns="http://www.w3.org/2000/svg">
<path d="M59.9147 27.376H40.1039C35.1225 27.3801 30.3463 29.3595 26.8228 32.8799C23.2993 36.4013 21.3157 41.1754 21.3086 46.1571V63.9073C21.3158 68.8888 23.2993 73.6628 26.8228 77.1845C30.3463 80.7051 35.1225 82.6845 40.1039 82.6884H59.9147C64.8962 82.6843 69.6723 80.7049 73.1959 77.1845C76.7194 73.6631 78.7029 68.889 78.71 63.9073V46.1571C78.7028 41.1756 76.7193 36.4016 73.1959 32.8799C69.6723 29.3593 64.8962 27.3799 59.9147 27.376V27.376ZM75.7666 63.9068C75.7584 68.1068 74.0859 72.1337 71.1148 75.1018C68.1424 78.071 64.1148 79.7403 59.9147 79.7445H40.1039C35.9038 79.7404 31.876 78.071 28.9039 75.1018C25.9326 72.1337 24.2602 68.1071 24.252 63.9068V46.1565C24.2602 41.9565 25.9327 37.9297 28.9039 34.9615C31.8762 31.9923 35.9038 30.3231 40.1039 30.3189H59.9147C64.1148 30.323 68.1427 31.9924 71.1148 34.9615C74.0861 37.9297 75.7585 41.9562 75.7666 46.1565V63.9068Z" fill="black"/>
<path d="M52.0112 54.6053H49.4507C47.5667 54.6053 45.6386 54.4585 44.387 55.6648C43.6981 56.3702 43.3357 57.3301 43.386 58.3136C43.3778 59.8229 43.8829 61.2889 44.8192 62.4706C45.7555 63.6533 47.0677 64.4818 48.537 64.8196V72.3555C48.537 73.1687 49.1961 73.8278 50.0092 73.8278C50.8224 73.8278 51.4815 73.1687 51.4815 72.3555V64.8196C52.9414 64.4839 54.2454 63.6646 55.1806 62.4942C56.1159 61.3238 56.6272 59.871 56.6323 58.373C56.7237 57.3001 56.3726 56.2365 55.6611 55.4295C54.6097 54.6636 53.2894 54.3659 52.0111 54.6051L52.0112 54.6053ZM50.0092 61.9646C47.9805 61.9564 46.3377 60.3137 46.3296 58.2849C46.3121 58.1022 46.3481 57.9184 46.4322 57.7552C46.9774 57.5139 47.577 57.4225 48.1694 57.4903H49.347H52.1293C52.7032 57.4903 53.4692 57.4164 53.6016 57.4903H53.6006C53.694 57.7542 53.7299 58.0355 53.7033 58.3137C53.7033 60.3547 52.0493 62.0088 50.0092 62.0088L50.0092 61.9646Z" fill="black"/>
<path d="M15.4487 29.2894C15.4426 26.9424 16.3717 24.6909 18.0288 23.0298C19.6859 21.3688 21.9363 20.4354 24.2834 20.4364C26.6294 20.4375 28.8787 21.3717 30.5348 23.0339C30.8017 23.345 31.1868 23.5319 31.5964 23.5473C32.0061 23.5637 32.4044 23.4076 32.6939 23.1171C32.9845 22.8276 33.1395 22.4292 33.1241 22.0196C33.1077 21.6099 32.9218 21.226 32.6108 20.959C30.3254 18.6685 27.198 17.4189 23.9642 17.5041C20.729 17.5893 17.6725 19.002 15.5115 21.4105C13.3504 23.8191 12.2756 27.0102 12.5392 30.2348C12.803 33.4598 14.3821 36.434 16.9056 38.4585C17.1684 38.67 17.4959 38.784 17.8337 38.783C18.4518 38.7778 19.001 38.3867 19.2084 37.8045C19.4158 37.2214 19.2362 36.5715 18.7608 36.1772C16.6684 34.5027 15.4507 31.9688 15.4486 29.2892L15.4487 29.2894Z" fill="black"/>
<path d="M75.7369 17.5142C72.6137 17.5122 69.6169 18.7503 67.4065 20.9586C67.0954 21.2255 66.9096 21.6095 66.8931 22.0192C66.8777 22.4288 67.0328 22.8272 67.3233 23.1167C67.6128 23.4073 68.0112 23.5633 68.4208 23.5469C68.8305 23.5315 69.2155 23.3446 69.4824 23.0336C71.2052 21.3539 73.54 20.4504 75.9444 20.5315C78.3499 20.6126 80.6178 21.6722 82.2237 23.4647C83.8296 25.2573 84.6343 27.628 84.4516 30.0273C84.2699 32.4267 83.1159 34.6484 81.2566 36.1771C80.7813 36.5713 80.6016 37.2212 80.809 37.8044C81.0164 38.3865 81.5657 38.7776 82.1837 38.7828C82.5215 38.7838 82.849 38.6699 83.1118 38.4584C85.6549 36.4101 87.233 33.3968 87.4691 30.1392C87.7052 26.8825 86.5769 23.6731 84.355 21.2789C82.1343 18.8857 79.0183 17.5223 75.7526 17.5142L75.7369 17.5142Z" fill="black"/>
<path d="M40.4411 39.7974C37.1886 39.7974 28.666 44.5664 28.666 48.629C28.666 52.6916 31.3004 55.9883 34.5529 55.9883C37.8054 55.9883 43.3845 51.2192 43.3845 47.1566C43.3845 43.094 43.6936 39.7974 40.4411 39.7974Z" fill="black"/>
<path d="M59.5753 39.7974C56.3228 39.7974 56.6319 43.094 56.6319 47.1566C56.6319 51.2192 62.21 55.9883 65.4635 55.9883C68.7161 55.9883 71.3504 52.6916 71.3504 48.629C71.3504 44.5664 62.8289 39.7974 59.5753 39.7974V39.7974Z" fill="black"/>
</svg>
