<svg width="100" height="100" viewBox="0 0 100 100" fill="none" xmlns="http://www.w3.org/2000/svg">
<path d="M60.5771 25.5352H39.4454C34.1318 25.5395 29.0372 27.651 25.2788 31.4061C21.5204 35.1622 19.4045 40.2546 19.397 45.5684V64.5021C19.4046 69.8157 21.5204 74.908 25.2788 78.6645C29.0372 82.4199 34.1318 84.5312 39.4454 84.5354H60.5771C65.8906 84.531 70.9852 82.4196 74.7437 78.6645C78.5021 74.9083 80.6179 69.816 80.6255 64.5021V45.5684C80.6178 40.2549 78.502 35.1625 74.7437 31.4061C70.9852 27.6507 65.8906 25.5394 60.5771 25.5352V25.5352ZM77.4858 64.5016C77.4771 68.9816 75.6931 73.2769 72.5238 76.443C69.3533 79.6101 65.0572 81.3907 60.5771 81.3952H39.4454C34.9653 81.3908 30.6689 79.6101 27.4986 76.443C24.3292 73.2769 22.5454 68.9819 22.5367 64.5016V45.5679C22.5454 41.0878 24.3294 36.7925 27.4986 33.6265C30.6692 30.4593 34.9653 28.6788 39.4454 28.6743H60.5771C65.0572 28.6787 69.3536 30.4594 72.5238 33.6265C75.6932 36.7925 77.4771 41.0875 77.4858 45.5679V64.5016Z" fill="black" stroke="black"/>
<path d="M52.1447 54.579H49.4135C47.4039 54.579 45.3472 54.4224 44.0121 55.7091C43.2773 56.4615 42.8907 57.4854 42.9444 58.5345C42.9356 60.1444 43.4744 61.7081 44.4732 62.9686C45.4719 64.2302 46.8715 65.114 48.4388 65.4743V73.5126C48.4388 74.38 49.1419 75.083 50.0092 75.083C50.8766 75.083 51.5797 74.38 51.5797 73.5126V65.4743C53.1369 65.1162 54.5279 64.2423 55.5254 62.9938C56.523 61.7454 57.0684 60.1957 57.0739 58.5978C57.1713 57.4534 56.7968 56.3189 56.0379 55.4582C54.9165 54.6412 53.5081 54.3236 52.1446 54.5788L52.1447 54.579ZM50.0092 62.4289C47.8452 62.4201 46.0929 60.6679 46.0842 58.5039C46.0656 58.309 46.104 58.113 46.1938 57.9388C46.7753 57.6815 47.4148 57.584 48.0467 57.6563H49.3029H52.2707C52.8829 57.6563 53.6999 57.5775 53.8411 57.6563H53.84C53.9397 57.9378 53.978 58.2378 53.9495 58.5346C53.9495 60.7117 52.1853 62.4761 50.0092 62.4761L50.0092 62.4289Z" fill="black" stroke="black"/>
<path d="M13.1453 27.5754C13.1388 25.072 14.1299 22.6704 15.8974 20.8985C17.665 19.1267 20.0654 18.1311 22.569 18.1322C25.0714 18.1333 27.4707 19.1299 29.2372 20.9029C29.522 21.2347 29.9326 21.434 30.3696 21.4505C30.8066 21.468 31.2315 21.3015 31.5403 20.9916C31.8502 20.6828 32.0156 20.2579 31.9992 19.8209C31.9816 19.3839 31.7834 18.9744 31.4516 18.6896C29.0138 16.2464 25.678 14.9135 22.2285 15.0044C18.7776 15.0953 15.5174 16.6022 13.2123 19.1713C10.9071 21.7405 9.7606 25.1442 10.0418 28.5839C10.3232 32.0238 12.0076 35.1963 14.6993 37.3559C14.9797 37.5815 15.329 37.7031 15.6893 37.702C16.3486 37.6965 16.9345 37.2792 17.1557 36.6583C17.3769 36.0362 17.1853 35.343 16.6782 34.9225C14.4464 33.1363 13.1475 30.4335 13.1452 27.5753L13.1453 27.5754Z" fill="black" stroke="black"/>
<path d="M77.4526 15.0142C74.1211 15.012 70.9245 16.3327 68.5667 18.6883C68.2349 18.973 68.0367 19.3826 68.0192 19.8195C68.0028 20.2565 68.1681 20.6814 68.478 20.9902C68.7869 21.3002 69.2118 21.4666 69.6487 21.4491C70.0857 21.4327 70.4964 21.2334 70.7811 20.9015C72.6188 19.1099 75.1092 18.1462 77.6739 18.2327C80.2398 18.3192 82.6589 19.4494 84.3718 21.3615C86.0848 23.2735 86.9432 25.8023 86.7483 28.3616C86.5545 30.921 85.3235 33.2908 83.3403 34.9214C82.8333 35.3419 82.6416 36.0351 82.8628 36.6571C83.0841 37.2781 83.67 37.6953 84.3292 37.7008C84.6895 37.7019 85.0389 37.5804 85.3192 37.3548C88.0319 35.17 89.7152 31.9557 89.9669 28.481C90.2188 25.0071 89.0153 21.5837 86.6453 19.03C84.2765 16.4772 80.9527 15.0229 77.4693 15.0142L77.4526 15.0142Z" fill="black" stroke="black"/>
<path d="M39.8033 38.7842C36.3339 38.7842 27.2432 43.8712 27.2432 48.2046C27.2432 52.5381 30.0532 56.0546 33.5225 56.0546C36.9919 56.0546 42.943 50.9675 42.943 46.6341C42.943 42.3007 43.2727 38.7842 39.8033 38.7842Z" fill="black"/>
<path d="M60.214 38.7842C56.7446 38.7842 57.0743 42.3007 57.0743 46.6341C57.0743 50.9675 63.0243 56.0546 66.4948 56.0546C69.9642 56.0546 72.7741 52.5381 72.7741 48.2046C72.7741 43.8712 63.6845 38.7842 60.214 38.7842Z" fill="black"/>
</svg>
