<svg width="100" height="100" viewBox="0 0 100 100" fill="none" xmlns="http://www.w3.org/2000/svg">
<path d="M65.5807 87.5H34.5811L50.0812 71.9999L65.5807 87.5ZM50.0805 19.3493L31.4219 37.9975L22.4805 46.939C20.466 48.9628 19.3349 51.7022 19.3349 54.5579C19.3349 57.4136 20.4661 60.1531 22.4805 62.1769C24.5017 64.1932 27.2398 65.3251 30.0948 65.3251C32.9498 65.3251 35.6878 64.1932 37.709 62.1769L50.0798 49.8061L62.4506 62.1769C64.4718 64.1932 67.2099 65.3251 70.0649 65.3251C72.9199 65.3251 75.6579 64.1932 77.6791 62.1769C79.6936 60.1531 80.8248 57.4136 80.8248 54.5579C80.8248 51.7022 79.6936 48.9628 77.6791 46.939L68.7377 37.9975L50.0791 19.3493H50.0805ZM50.0791 12.5L72.1559 34.5768L81.0777 43.5183C84.009 46.4442 85.6565 50.4155 85.6565 54.557C85.6565 58.6986 84.0091 62.6699 81.0777 65.5958C78.1511 68.5245 74.1797 70.1698 70.0389 70.1698C65.8986 70.1698 61.9273 68.5244 59.0002 65.5958L50.0784 56.6544L41.137 65.5958C38.2104 68.5185 34.2437 70.1605 30.1076 70.1605C25.9721 70.1605 22.0048 68.5184 19.0788 65.5958C16.1475 62.6699 14.5 58.6986 14.5 54.557C14.5 50.4155 16.1474 46.4442 19.0788 43.5183L28.0203 34.5768L50.0791 12.5Z" fill="black"/>
</svg>
