<svg width="100" height="100" viewBox="0 0 100 100" fill="none" xmlns="http://www.w3.org/2000/svg">
<path d="M65.2023 87.5C62.9573 87.5 56.1382 86.0411 52.4903 82.3932C51.6441 81.5326 50.8833 80.593 50.2172 79.5868C49.5517 80.5929 48.7902 81.5324 47.9447 82.3932C44.2967 86.0411 37.4778 87.5 35.2327 87.5V80.0168C36.355 80.0168 40.9105 78.8665 42.669 77.1081C44.5971 75.0339 45.8525 72.4253 46.2706 69.6249C41.1089 73.5247 34.3102 74.5106 28.2528 72.2386C22.1959 69.9666 17.7232 64.7529 16.4 58.4205C15.0761 52.0883 17.0858 45.5193 21.7255 41.0107L50.2362 12.5L78.747 41.0107C83.298 45.5382 85.2377 52.0668 83.8969 58.3437C82.5561 64.6218 78.1179 69.7881 72.1153 72.0612C66.112 74.3337 59.3647 73.402 54.2028 69.5865C54.6249 72.3856 55.8796 74.9935 57.8043 77.069C59.5907 78.8372 64.1183 79.9876 65.2033 80.0156L65.2023 87.5ZM53.9773 54.3775C53.9799 58.1878 55.8831 61.7458 59.0522 63.8618C62.2213 65.9777 66.2373 66.3724 69.7573 64.9142C73.2773 63.4559 75.837 60.3365 76.5814 56.5998C77.3252 52.8625 76.1547 49.0005 73.4613 46.3051L50.2354 23.0793L27.0096 46.3051C24.3162 49.0005 23.1456 52.8625 23.8894 56.5998C24.6339 60.3365 27.1935 63.456 30.7135 64.9142C34.2335 66.3725 38.2495 65.9777 41.4186 63.8618C44.5877 61.7458 46.4909 58.1878 46.4935 54.3775H53.9773Z" fill="black"/>
</svg>
