<svg width="100" height="100" viewBox="0 0 100 100" fill="none" xmlns="http://www.w3.org/2000/svg">
<path d="M71.082 39.1632L43.9322 66.313C43.885 66.313 39.6514 70.4629 34.178 70.4629C28.0198 70.4629 23.194 65.2711 23.194 58.6434C23.194 52.0156 26.2168 48.8421 26.3295 48.7294L42.9086 32.1595C52.4092 22.7715 52.5219 12.9141 52.5219 12.5H47.8279C47.8279 12.5753 47.7342 20.7898 39.6041 28.8256L23.0061 45.4144C22.828 45.5926 18.5 50.0332 18.5 58.6419C18.5 67.8983 25.391 75.1554 34.178 75.1554C41.6323 75.1554 47.0113 69.8701 47.2463 69.6349L47.8285 69.0527V69.8792C47.8285 70.1981 47.894 77.7467 53.1701 83.0221C56.3155 86.1765 62.4266 87.5 64.3421 87.5V82.806C63.1967 82.806 58.4653 81.6796 56.4937 79.7079C52.6156 75.822 52.522 69.9263 52.522 69.8798V69.0534L53.1133 69.6447C53.3386 69.87 58.7465 75.1553 66.1719 75.1553C74.9588 75.1553 81.85 67.8982 81.85 58.6418C81.85 50.033 77.5221 45.5924 77.334 45.4144L71.082 39.1632ZM66.1346 70.4622C60.6613 70.4622 56.4277 66.3504 56.3896 66.3223L53.4604 63.384L71.0814 45.7999L74.0007 48.71C74.1323 48.8416 77.1551 52.0805 77.1551 58.6422C77.1558 65.2046 72.3302 70.4617 66.1339 70.4617L66.1346 70.4622Z" fill="black"/>
</svg>
