<svg width="100" height="100" viewBox="0 0 100 100" fill="none" xmlns="http://www.w3.org/2000/svg">
<path d="M50 5.2085C51.7258 5.2085 53.125 6.60762 53.125 8.3335V12.5002C53.125 14.226 51.7258 15.6252 50 15.6252C48.2742 15.6252 46.875 14.226 46.875 12.5002V8.3335C46.875 6.60762 48.2742 5.2085 50 5.2085Z" fill="#070709"/>
<path fill-rule="evenodd" clip-rule="evenodd" d="M26.0417 49.9998C26.0417 36.768 36.7682 26.0415 50.0001 26.0415C63.2317 26.0415 73.9584 36.768 73.9584 49.9998C73.9584 63.2315 63.2317 73.9582 50.0001 73.9582C36.7682 73.9582 26.0417 63.2315 26.0417 49.9998ZM50.0001 32.2915C40.22 32.2915 32.2917 40.2198 32.2917 49.9998C32.2917 59.7798 40.22 67.7082 50.0001 67.7082C59.7801 67.7082 67.7084 59.7798 67.7084 49.9998C67.7084 40.2198 59.7801 32.2915 50.0001 32.2915Z" fill="#070709"/>
<path d="M22.7471 18.3274C21.5267 17.107 19.548 17.107 18.3277 18.3274C17.1072 19.5478 17.1072 21.5264 18.3277 22.7468L21.2739 25.6931C22.4943 26.9135 24.473 26.9135 25.6933 25.6931C26.9137 24.4727 26.9137 22.4941 25.6933 21.2737L22.7471 18.3274Z" fill="#070709"/>
<path d="M94.7917 50C94.7917 51.7258 93.3925 53.125 91.6667 53.125H87.5C85.7742 53.125 84.375 51.7258 84.375 50C84.375 48.2742 85.7742 46.875 87.5 46.875H91.6667C93.3925 46.875 94.7917 48.2742 94.7917 50Z" fill="#070709"/>
<path d="M81.6725 22.7468C82.8929 21.5264 82.8929 19.5478 81.6725 18.3274C80.4521 17.107 78.4733 17.107 77.2529 18.3274L74.3067 21.2737C73.0863 22.4941 73.0863 24.4727 74.3067 25.6931C75.5271 26.9135 77.5058 26.9135 78.7263 25.6931L81.6725 22.7468Z" fill="#070709"/>
<path d="M50 84.375C51.7258 84.375 53.125 85.7742 53.125 87.5V91.6667C53.125 93.3925 51.7258 94.7917 50 94.7917C48.2742 94.7917 46.875 93.3925 46.875 91.6667V87.5C46.875 85.7742 48.2742 84.375 50 84.375Z" fill="#070709"/>
<path d="M78.7263 74.3064C77.5059 73.086 75.5276 73.086 74.3072 74.3064C73.0867 75.5268 73.0867 77.5056 74.3072 78.726L77.2534 81.6723C78.4738 82.8927 80.4522 82.8927 81.6726 81.6723C82.893 80.4518 82.893 78.4731 81.6726 77.2527L78.7263 74.3064Z" fill="#070709"/>
<path d="M15.6249 50C15.6249 51.7258 14.2258 53.125 12.4999 53.125H8.33325C6.60738 53.125 5.20825 51.7258 5.20825 50C5.20825 48.2742 6.60738 46.875 8.33325 46.875H12.4999C14.2258 46.875 15.6249 48.2742 15.6249 50Z" fill="#070709"/>
<path d="M25.6931 78.726C26.9135 77.5056 26.9135 75.5268 25.6931 74.3064C24.4727 73.086 22.4941 73.086 21.2737 74.3064L18.3274 77.2527C17.107 78.4731 17.107 80.4518 18.3274 81.6723C19.5478 82.8927 21.5264 82.8927 22.7468 81.6723L25.6931 78.726Z" fill="#070709"/>
</svg>
