<svg width="100" height="100" viewBox="0 0 100 100" fill="none" xmlns="http://www.w3.org/2000/svg">
<path d="M66.6667 35.4168C74.1034 35.4168 80.3242 41.096 81.1 48.4664C81.2069 49.4814 81.2069 50.5189 81.1 51.5339C80.3242 58.9042 74.1035 64.5835 66.6667 64.5835C59.2299 64.5835 53.0092 58.9042 52.2333 51.5339C52.1267 50.5189 52.1267 49.4814 52.2333 48.4664C53.0092 41.096 59.2299 35.4168 66.6667 35.4168Z" fill="#070709"/>
<path fill-rule="evenodd" clip-rule="evenodd" d="M66.3569 21.875L33.643 21.875C19.8034 21.875 8.02088 31.9433 5.86213 45.6138C5.40338 48.52 5.40338 51.48 5.86213 54.3863C8.02088 68.0567 19.8034 78.125 33.643 78.125L66.3569 78.125C80.1965 78.125 91.9793 68.0567 94.1378 54.3863C94.5967 51.48 94.5967 48.52 94.1378 45.6138C91.9793 31.9433 80.1965 21.875 66.3569 21.875ZM66.3569 28.125C77.1211 28.125 86.2854 35.9558 87.9642 46.5883C88.3212 48.8488 88.3212 51.1513 87.9642 53.4117C86.2854 64.0441 77.1211 71.875 66.3569 71.875H33.643C22.8788 71.875 13.7146 64.0441 12.0359 53.4117C11.6788 51.1513 11.6788 48.8488 12.0359 46.5883C13.7146 35.9558 22.8788 28.125 33.643 28.125L66.3569 28.125Z" fill="#070709"/>
</svg>
