<svg width="100" height="100" viewBox="0 0 100 100" fill="none" xmlns="http://www.w3.org/2000/svg">
<path d="M33.3333 64.5832C25.8966 64.5832 19.6758 58.904 18.9 51.5336C18.7931 50.5186 18.7931 49.4811 18.9 48.4661C19.6758 41.0958 25.8965 35.4165 33.3333 35.4165C40.7701 35.4165 46.9908 41.0958 47.7667 48.4661C47.8733 49.4811 47.8733 50.5186 47.7667 51.5336C46.9908 58.904 40.7701 64.5832 33.3333 64.5832Z" fill="#070709"/>
<path fill-rule="evenodd" clip-rule="evenodd" d="M33.6431 78.125H66.357C80.1966 78.125 91.9791 68.0567 94.1379 54.3862C94.5966 51.48 94.5966 48.52 94.1379 45.6137C91.9791 31.9433 80.1966 21.875 66.357 21.875H33.6431C19.8035 21.875 8.02068 31.9433 5.86222 45.6137C5.40335 48.52 5.40335 51.48 5.86222 54.3862C8.02068 68.0567 19.8035 78.125 33.6431 78.125ZM33.6431 71.875C22.8789 71.875 13.7146 64.0442 12.0358 53.4117C11.6788 51.1512 11.6788 48.8487 12.0358 46.5883C13.7146 35.9559 22.8789 28.125 33.6431 28.125H66.357C77.1212 28.125 86.2854 35.9559 87.9641 46.5883C88.3212 48.8487 88.3212 51.1512 87.9641 53.4117C86.2854 64.0442 77.1212 71.875 66.357 71.875H33.6431Z" fill="#070709"/>
</svg>
