<svg width="100" height="100" viewBox="0 0 100 100" fill="none" xmlns="http://www.w3.org/2000/svg">
<path d="M41.6668 9.375C39.941 9.375 38.5418 10.7741 38.5418 12.5V15.625H20.8335C19.1076 15.625 17.7085 17.0241 17.7085 18.75C17.7085 20.4759 19.1076 21.875 20.8335 21.875H79.1668C80.8927 21.875 82.2918 20.4759 82.2918 18.75C82.2918 17.0241 80.8927 15.625 79.1668 15.625H61.4585V12.5C61.4585 10.7741 60.0593 9.375 58.3335 9.375H41.6668Z" fill="black"/>
<path d="M41.6665 44.375C43.3923 44.375 44.7915 45.7742 44.7915 47.5V76.6667C44.7915 78.3925 43.3923 79.7917 41.6665 79.7917C39.9406 79.7917 38.5415 78.3925 38.5415 76.6667V47.5C38.5415 45.7742 39.9406 44.375 41.6665 44.375Z" fill="black"/>
<path d="M61.4585 47.5C61.4585 45.7742 60.0593 44.375 58.3335 44.375C56.6077 44.375 55.2085 45.7742 55.2085 47.5V76.6667C55.2085 78.3925 56.6077 79.7917 58.3335 79.7917C60.0593 79.7917 61.4585 78.3925 61.4585 76.6667V47.5Z" fill="black"/>
<path fill-rule="evenodd" clip-rule="evenodd" d="M24.9643 32.9884C25.1402 31.4058 26.4779 30.2085 28.0702 30.2085H71.9301C73.5221 30.2085 74.8601 31.4058 75.0359 32.9884L75.8696 40.494C77.3813 54.0993 77.3813 67.8306 75.8696 81.436L75.7876 82.1752C75.1876 87.5756 71.0017 91.8822 65.6205 92.6356C55.2576 94.0864 44.7426 94.0864 34.3796 92.6356C28.9981 91.8822 24.8126 87.5756 24.2125 82.1752L24.1304 81.436C22.6186 67.8306 22.6186 54.0993 24.1304 40.494L24.9643 32.9884ZM30.8672 36.4585L30.3421 41.1842C28.8814 54.331 28.8814 67.5993 30.3421 80.746L30.4242 81.4847C30.7089 84.046 32.6939 86.0885 35.2461 86.446C45.0342 87.816 54.9659 87.816 64.7538 86.446C67.3063 86.0885 69.2913 84.046 69.5759 81.4847L69.658 80.746C71.1188 67.5993 71.1188 54.331 69.658 41.1842L69.133 36.4585H30.8672Z" fill="black"/>
</svg>
