<svg width="100" height="100" viewBox="0 0 100 100" fill="none" xmlns="http://www.w3.org/2000/svg">
<path fill-rule="evenodd" clip-rule="evenodd" d="M62.5896 13.931C64.7075 13.5682 67.0796 13.447 69.3121 13.8247C73.2991 14.4992 76.9817 16.3523 79.8929 19.1304C81.7958 19.1735 83.6658 18.7986 85.3204 18.2642C86.7208 17.8119 87.9042 17.2657 88.7329 16.8339C89.145 16.6192 89.4633 16.436 89.6704 16.312C89.7737 16.2501 89.8492 16.2033 89.8937 16.175L89.9333 16.1497C91.17 15.3259 92.8167 15.4862 93.8704 16.5342C94.9242 17.5823 95.0942 19.2278 94.2762 20.4691C93.4108 21.7828 92.2092 24.1248 90.8633 26.7488C90.6517 27.1614 90.4362 27.5809 90.2183 28.0045C89.4462 29.5044 88.6546 31.0203 87.9167 32.3208C87.4533 33.1374 86.9579 33.9665 86.4583 34.6829V35.8237C86.49 40.0138 86.0096 44.182 85.0342 48.237C84.4204 50.7886 83.6108 53.2953 82.61 55.7345C80.0167 62.0536 76.19 67.7932 71.3537 72.617C66.5171 77.4411 60.7679 81.2528 54.4421 83.8303C48.1217 86.4049 41.3518 87.6957 34.5274 87.6274C24.6344 87.6361 14.9496 84.7857 6.63823 79.4195C5.41406 78.629 4.89865 77.0974 5.3959 75.7278C5.89311 74.3578 7.27102 73.5136 8.71715 73.6928C9.96865 73.8478 11.2287 73.9232 12.4897 73.919C17.0208 73.9065 21.4655 72.9053 25.5233 71.019C24.2335 70.432 23.0021 69.7082 21.8514 68.8549C18.4693 66.347 15.953 62.847 14.6527 58.8424C14.3148 57.802 14.5458 56.6603 15.2617 55.8328C15.2745 55.8178 15.2875 55.8032 15.3006 55.7886C14.5359 55.107 13.8203 54.3645 13.1616 53.5661C10.1978 49.9736 8.56577 45.4674 8.54169 40.8102L8.54161 40.794L8.54165 40.5857C8.54165 39.478 9.12811 38.453 10.0831 37.8916C10.3252 37.7493 10.5818 37.6422 10.8458 37.5704C9.43606 34.7575 8.70294 31.6515 8.70831 28.5005C8.70665 24.9306 9.63915 21.4224 11.4131 18.3245C11.9253 17.4302 12.8454 16.8458 13.8726 16.7626C14.8998 16.6794 15.902 17.1079 16.5514 17.9081C20.5621 22.8498 25.5674 26.8925 31.2424 29.7737C34.1596 31.2548 37.2202 32.4118 40.3694 33.2303C42.135 33.6892 43.9283 34.0416 45.74 34.285C45.66 31.2715 46.255 28.2595 47.5042 25.4765C49.3362 21.3939 52.4712 18.0348 56.4183 15.9261C58.0896 15.033 60.3083 14.3218 62.5896 13.931ZM15.5969 45.379C16.1371 46.8995 16.9408 48.3257 17.9826 49.5886C20.0299 52.0699 22.8713 53.7682 26.0264 54.3957C27.4317 54.6753 28.4669 55.8749 28.5378 57.3061C28.6087 58.737 27.6973 60.0332 26.3265 60.4503C25.1911 60.7957 24.0278 61.0365 22.8514 61.1703C23.6288 62.1724 24.5433 63.0703 25.5741 63.8345C27.9124 65.5682 30.733 66.5303 33.6435 66.5861C34.9639 66.6115 36.1259 67.4645 36.546 68.7165C36.9661 69.969 36.5537 71.3499 35.5157 72.1665C31.1442 75.6065 26.0892 78.0049 20.7327 79.2295C25.1723 80.6511 29.8283 81.3832 34.5378 81.3774H34.5741C40.5744 81.4395 46.5267 80.3061 52.0837 78.042C57.6412 75.7782 62.6912 72.4295 66.94 68.192C71.1883 63.9545 74.5496 58.9128 76.8279 53.3615C77.7071 51.2186 78.4183 49.017 78.9575 46.7757C79.815 43.2099 80.2371 39.5446 80.2083 35.8602V35.8357V33.6274C80.2083 32.8697 80.4837 32.1378 80.9829 31.5679C81.2717 31.2385 81.7767 30.4779 82.4808 29.2366C83.15 28.0569 83.8908 26.6407 84.6612 25.144C84.7079 25.0535 84.7546 24.9625 84.8017 24.8712C82.8033 25.3051 80.5383 25.5325 78.1642 25.276C77.4125 25.1947 76.7154 24.8435 76.2025 24.2875C74.1075 22.0153 71.3171 20.5028 68.2696 19.9871C66.9175 19.7584 65.2825 19.8108 63.6446 20.0913C61.865 20.3962 60.3162 20.9295 59.3633 21.4386C56.6371 22.8951 54.4716 25.2153 53.2062 28.0353C51.9408 30.8552 51.6471 34.0154 52.3712 37.0202C52.6021 37.9782 52.3679 38.9889 51.7387 39.7474C51.1096 40.5058 50.1596 40.9232 49.1754 40.8734C45.6612 40.6956 42.1842 40.1596 38.7972 39.2793C35.2143 38.3481 31.7321 37.0317 28.413 35.3466C23.5264 32.8657 19.0762 29.6278 15.2227 25.7625C15.0469 26.6608 14.9577 27.5776 14.9583 28.5003V28.5083C14.9539 30.803 15.5171 33.0631 16.5975 35.0875C17.678 37.1118 19.2422 38.8376 21.1511 40.1112C22.3095 40.8841 22.8167 42.3303 22.3948 43.6574C21.9729 44.9845 20.7237 45.8724 19.3316 45.8345C18.0709 45.8003 16.8206 45.647 15.5969 45.379Z" fill="#070709"/>
</svg>
