<svg width="100" height="100" viewBox="0 0 100 100" fill="none" xmlns="http://www.w3.org/2000/svg">
<path fill-rule="evenodd" clip-rule="evenodd" d="M32.2917 31.2498C32.2917 21.4698 40.22 13.5415 50.0001 13.5415C59.7801 13.5415 67.7084 21.4698 67.7084 31.2498C67.7084 41.0299 59.7801 48.9582 50.0001 48.9582C40.22 48.9582 32.2917 41.0299 32.2917 31.2498ZM50.0001 19.7915C43.6717 19.7915 38.5417 24.9216 38.5417 31.2498C38.5417 37.5781 43.6717 42.7082 50.0001 42.7082C56.3284 42.7082 61.4584 37.5781 61.4584 31.2498C61.4584 24.9216 56.3284 19.7915 50.0001 19.7915Z" fill="black"/>
<path fill-rule="evenodd" clip-rule="evenodd" d="M33.3333 61.4585C28.1556 61.4585 23.9583 65.656 23.9583 70.8335V75.7847C23.9583 75.8602 24.0129 75.9243 24.0873 75.9364C41.2488 78.7385 58.7512 78.7385 75.9124 75.9364C75.987 75.9243 76.0416 75.8602 76.0416 75.7847V70.8335C76.0416 65.656 71.8441 61.4585 66.6666 61.4585H65.2462C65.1366 61.4585 65.0274 61.476 64.9228 61.5097L61.3166 62.6877C53.9633 65.0885 46.0366 65.0885 38.6832 62.6877L35.0769 61.5097C34.9725 61.476 34.8633 61.4585 34.7535 61.4585H33.3333ZM17.7083 70.8335C17.7083 62.2039 24.7038 55.2085 33.3333 55.2085H34.7535C35.5223 55.2085 36.2861 55.3302 37.0169 55.5685L40.6232 56.7464C46.7162 58.7356 53.2837 58.7356 59.3766 56.7464L62.9828 55.5685C63.7137 55.3302 64.4774 55.2085 65.2462 55.2085H66.6666C75.2962 55.2085 82.2916 62.2039 82.2916 70.8335V75.7847C82.2916 78.9231 80.017 81.5989 76.9195 82.1047C59.0912 85.0156 40.9087 85.0156 23.0802 82.1047C19.9828 81.5989 17.7083 78.9231 17.7083 75.7847V70.8335Z" fill="black"/>
</svg>
