<svg width="100" height="100" viewBox="0 0 100 100" fill="none" xmlns="http://www.w3.org/2000/svg">
<path fill-rule="evenodd" clip-rule="evenodd" d="M66.5301 23.7124C65.8222 18.0479 59.1301 15.4072 54.7447 19.0618L36.6584 34.1337C36.4712 34.2897 36.2352 34.3752 35.9915 34.3752H20.8334C16.8063 34.3752 13.5417 37.6397 13.5417 41.6668V58.3334C13.5417 62.3605 16.8063 65.6251 20.8334 65.6251H35.9915C36.2352 65.6251 36.4712 65.7105 36.6584 65.8668L54.7447 80.9384C59.1301 84.593 65.8222 81.9526 66.5301 76.288C68.7122 58.8305 68.7122 41.1697 66.5301 23.7124ZM58.7459 23.8632C59.3347 23.3725 60.2334 23.727 60.3284 24.4877C62.4463 41.4301 62.4463 58.5701 60.3284 75.5126C60.2334 76.2734 59.3347 76.628 58.7459 76.1372L40.6595 61.0651C39.3491 59.973 37.6973 59.3751 35.9915 59.3751H20.8334C20.2581 59.3751 19.7917 58.9089 19.7917 58.3334V41.6668C19.7917 41.0915 20.2581 40.6252 20.8334 40.6252H35.9915C37.6973 40.6252 39.3491 40.0271 40.6595 38.9351L58.7459 23.8632Z" fill="#070709"/>
<path d="M79.3013 33.1155C78.7059 31.4955 76.9105 30.6647 75.2905 31.26C73.6705 31.8552 72.8396 33.651 73.4346 35.271C75.1201 39.8582 76.0417 44.818 76.0417 50C76.0417 54.2984 75.4076 58.4434 74.2301 62.3488C74.1646 62.5663 74.0971 62.7834 74.0284 62.9992C73.8426 63.5813 73.6446 64.1584 73.4346 64.7292C72.8396 66.3492 73.6705 68.145 75.2905 68.7405C76.9105 69.3355 78.7059 68.5046 79.3013 66.8846C79.5421 66.2296 79.7692 65.5675 79.9826 64.8996C80.0617 64.6513 80.1388 64.4025 80.2142 64.153C81.5663 59.6684 82.2917 54.9163 82.2917 50C82.2917 44.0717 81.2367 38.3829 79.3013 33.1155Z" fill="#070709"/>
</svg>
